<svg width="55" height="55" viewBox="0 0 55 55" fill="none" xmlns="http://www.w3.org/2000/svg">
<path d="M33.9168 14.6665C35.1103 14.6665 36.1187 15.4356 36.4982 16.4998H46.0022C46.3817 15.4356 47.39 14.6665 48.5835 14.6665C50.0997 14.6665 51.3335 15.9003 51.3335 17.4165C51.3335 18.9326 50.0997 20.1664 48.5835 20.1664C47.39 20.1664 46.3817 19.3973 46.0022 18.3331H36.4972C36.1177 19.3973 35.1094 20.1664 33.9159 20.1664C32.3997 20.1664 31.1659 18.9326 31.1659 17.4165C31.1659 15.9003 32.4007 14.6665 33.9168 14.6665ZM48.5835 18.3331C49.0886 18.3331 49.5002 17.9225 49.5002 17.4165C49.5002 16.9105 49.0886 16.4998 48.5835 16.4998C48.0784 16.4998 47.6668 16.9105 47.6668 17.4165C47.6668 17.9225 48.0784 18.3331 48.5835 18.3331ZM33.9168 18.3331C34.4219 18.3331 34.8335 17.9225 34.8335 17.4165C34.8335 16.9105 34.4219 16.4998 33.9168 16.4998C33.4117 16.4998 33.0002 16.9105 33.0002 17.4165C33.0002 17.9225 33.4117 18.3331 33.9168 18.3331Z" fill="#00B2FF"/>
<path d="M26.5832 20.3349V14.6663C26.5832 14.4225 26.6794 14.1897 26.8518 14.0182L30.5184 10.3516C30.6898 10.1793 30.9236 10.0831 31.1665 10.0831H34.0852C34.4647 9.01883 35.473 8.24976 36.6665 8.24976C38.1827 8.24976 39.4165 9.48357 39.4165 10.9997C39.4165 12.5159 38.1827 13.7497 36.6665 13.7497C35.473 13.7497 34.4647 12.9806 34.0852 11.9164H31.546L28.4165 15.0458V20.3349C29.4808 20.7144 30.2498 21.7227 30.2498 22.9162C30.2498 24.4323 29.016 25.6661 27.4998 25.6661C25.9837 25.6661 24.7498 24.4323 24.7498 22.9162C24.7498 21.7227 25.5189 20.7144 26.5832 20.3349ZM36.6665 11.9164C37.1716 11.9164 37.5832 11.5057 37.5832 10.9997C37.5832 10.4937 37.1716 10.0831 36.6665 10.0831C36.1614 10.0831 35.7498 10.4937 35.7498 10.9997C35.7498 11.5057 36.1614 11.9164 36.6665 11.9164ZM27.4998 23.8328C28.0049 23.8328 28.4165 23.4222 28.4165 22.9162C28.4165 22.4102 28.0049 21.9995 27.4998 21.9995C26.9948 21.9995 26.5832 22.4102 26.5832 22.9162C26.5832 23.4222 26.9948 23.8328 27.4998 23.8328Z" fill="#00B2FF"/>
<path d="M10.0833 23.8329C10.5068 23.8329 10.9028 23.9365 11.2613 24.1089L12.8333 22.5368V13.7498C12.8333 13.5059 12.9296 13.2731 13.1019 13.1017L22.2759 3.92785C22.1036 3.56944 22 3.17345 22 2.74995C22 1.23381 23.2338 0 24.75 0C26.2662 0 27.5 1.23381 27.5 2.74995C27.5 4.2661 26.2662 5.49991 24.75 5.49991C24.3265 5.49991 23.9305 5.39633 23.5721 5.224L14.6667 14.1293V22.9163C14.6667 23.1601 14.5704 23.3929 14.3981 23.5644L12.5574 25.405C12.7298 25.7634 12.8333 26.1594 12.8333 26.5829C12.8333 28.099 11.5995 29.3328 10.0833 29.3328C8.56717 29.3328 7.33333 28.099 7.33333 26.5829C7.33333 25.0667 8.56717 23.8329 10.0833 23.8329ZM24.75 3.66661C25.2551 3.66661 25.6667 3.25595 25.6667 2.74995C25.6667 2.24396 25.2551 1.8333 24.75 1.8333C24.2449 1.8333 23.8333 2.24396 23.8333 2.74995C23.8333 3.25595 24.2449 3.66661 24.75 3.66661ZM10.0833 27.4995C10.5884 27.4995 11 27.0889 11 26.5829C11 26.0769 10.5884 25.6662 10.0833 25.6662C9.57825 25.6662 9.16667 26.0769 9.16667 26.5829C9.16667 27.0889 9.57825 27.4995 10.0833 27.4995Z" fill="#00B2FF"/>
<path d="M1.83333 13.0018V9.16651C1.83333 8.92268 1.92958 8.68986 2.10192 8.51844L8.51858 2.10188C8.69 1.92955 8.92375 1.8333 9.16667 1.8333H13.9187C14.2982 0.769071 15.3065 0 16.5 0C18.0162 0 19.25 1.23381 19.25 2.74995C19.25 4.2661 18.0162 5.49991 16.5 5.49991C15.3065 5.49991 14.2982 4.73084 13.9187 3.66661H9.54617L3.66667 9.54601V13.0018C4.73092 13.3813 5.5 14.3896 5.5 15.5831C5.5 17.0992 4.26617 18.333 2.75 18.333C1.23383 18.333 0 17.0992 0 15.5831C0 14.3896 0.769083 13.3813 1.83333 13.0018ZM16.5 3.66661C17.0051 3.66661 17.4167 3.25595 17.4167 2.74995C17.4167 2.24396 17.0051 1.8333 16.5 1.8333C15.9949 1.8333 15.5833 2.24396 15.5833 2.74995C15.5833 3.25595 15.9949 3.66661 16.5 3.66661ZM2.75 16.4997C3.25508 16.4997 3.66667 16.0891 3.66667 15.5831C3.66667 15.0771 3.25508 14.6664 2.75 14.6664C2.24492 14.6664 1.83333 15.0771 1.83333 15.5831C1.83333 16.0891 2.24492 16.4997 2.75 16.4997Z" fill="#00B2FF"/>
<path d="M14.6658 49.6688V36.4974C13.6024 36.1179 12.8333 35.1096 12.8333 33.9161C12.8333 32.4 14.0672 31.1662 15.5833 31.1662C16.7768 31.1662 17.7852 31.9352 18.1647 32.9995H27.6687C28.0482 31.9352 29.0565 31.1662 30.25 31.1662C31.4435 31.1662 32.4518 31.9352 32.8313 32.9995H38.1205L41.5259 29.5941C41.3536 29.2357 41.25 28.8397 41.25 28.4162C41.25 26.9001 42.4838 25.6663 44 25.6663C45.5162 25.6663 46.75 26.9001 46.75 28.4162C46.75 29.9324 45.5162 31.1662 44 31.1662C43.5765 31.1662 43.1805 31.0626 42.8221 30.8903L39.1481 34.5642C38.9767 34.7365 38.7429 34.8328 38.5 34.8328H32.8313C32.4518 35.897 31.4435 36.6661 30.25 36.6661C29.0565 36.6661 28.0482 35.897 27.6687 34.8328H18.1638C17.8869 35.6092 17.2755 36.2206 16.4991 36.4974V49.6688C17.5633 50.0483 18.3324 51.0566 18.3324 52.2501C18.3324 53.7662 17.0986 55 15.5824 55C14.0663 55 12.8324 53.7662 12.8324 52.2501C12.8324 51.0566 13.6015 50.0483 14.6658 49.6688ZM44 29.3329C44.5051 29.3329 44.9167 28.9222 44.9167 28.4162C44.9167 27.9102 44.5051 27.4996 44 27.4996C43.4949 27.4996 43.0833 27.9102 43.0833 28.4162C43.0833 28.9222 43.4949 29.3329 44 29.3329ZM30.25 34.8328C30.7551 34.8328 31.1667 34.4221 31.1667 33.9161C31.1667 33.4101 30.7551 32.9995 30.25 32.9995C29.7449 32.9995 29.3333 33.4101 29.3333 33.9161C29.3333 34.4221 29.7449 34.8328 30.25 34.8328ZM15.5833 53.1658C16.0884 53.1658 16.5 52.7551 16.5 52.2492C16.5 51.7432 16.0884 51.3325 15.5833 51.3325C15.0783 51.3325 14.6667 51.7432 14.6667 52.2492C14.6667 52.7551 15.0783 53.1658 15.5833 53.1658ZM15.5833 34.8328C16.0884 34.8328 16.5 34.4221 16.5 33.9161C16.5 33.4101 16.0884 32.9995 15.5833 32.9995C15.0783 32.9995 14.6667 33.4101 14.6667 33.9161C14.6667 34.4221 15.0783 34.8328 15.5833 34.8328Z" fill="#00B2FF"/>
<path d="M19.2498 18.5017V15.5831C19.2498 15.3392 19.3461 15.1064 19.5184 14.935L30.5258 3.92785C30.3534 3.56944 30.2498 3.17345 30.2498 2.74995C30.2498 1.23381 31.4837 0 32.9998 0C34.1933 0 35.2017 0.769071 35.5812 1.8333H39.4165C39.9225 1.8333 40.3332 2.24305 40.3332 2.74995V5.12041L43.7386 8.52577C44.097 8.35344 44.493 8.24986 44.9165 8.24986C46.4327 8.24986 47.6665 9.48368 47.6665 10.9998C47.6665 12.516 46.4327 13.7498 44.9165 13.7498C43.4003 13.7498 42.1665 12.516 42.1665 10.9998C42.1665 10.5763 42.2701 10.1803 42.4424 9.82192L38.7684 6.14798C38.5961 5.97657 38.4998 5.74374 38.4998 5.49991V3.66661H35.5812C35.2017 4.73084 34.1933 5.49991 32.9998 5.49991C32.5763 5.49991 32.1803 5.39633 31.8219 5.224L21.0832 15.9626V18.5017C22.1474 18.8812 22.9165 19.8895 22.9165 21.083C22.9165 22.5991 21.6827 23.8329 20.1665 23.8329C18.6503 23.8329 17.4165 22.5991 17.4165 21.083C17.4165 19.8895 18.1856 18.8812 19.2498 18.5017ZM44.9165 11.9165C45.4216 11.9165 45.8332 11.5058 45.8332 10.9998C45.8332 10.4938 45.4216 10.0832 44.9165 10.0832C44.4114 10.0832 43.9998 10.4938 43.9998 10.9998C43.9998 11.5058 44.4114 11.9165 44.9165 11.9165ZM32.9998 3.66661C33.5049 3.66661 33.9165 3.25595 33.9165 2.74995C33.9165 2.24396 33.5049 1.8333 32.9998 1.8333C32.4948 1.8333 32.0832 2.24396 32.0832 2.74995C32.0832 3.25595 32.4948 3.66661 32.9998 3.66661ZM20.1665 21.9996C20.6716 21.9996 21.0832 21.589 21.0832 21.083C21.0832 20.577 20.6716 20.1663 20.1665 20.1663C19.6614 20.1663 19.2498 20.577 19.2498 21.083C19.2498 21.589 19.6614 21.9996 20.1665 21.9996Z" fill="#00B2FF"/>
<path d="M22 25.6662C23.1935 25.6662 24.2018 26.4353 24.5813 27.4995H35.3705L40.6019 22.2682C40.7733 22.0959 41.0071 21.9996 41.25 21.9996H50.9538L53.1667 19.7868V12.296L46.0946 5.224C45.7362 5.39633 45.3402 5.49991 44.9167 5.49991C43.4005 5.49991 42.1667 4.2661 42.1667 2.74995C42.1667 1.23381 43.4005 0 44.9167 0C46.4328 0 47.6667 1.23381 47.6667 2.74995C47.6667 3.17345 47.5631 3.56944 47.3907 3.92785L54.7314 11.2684C54.9037 11.4398 55 11.6726 55 11.9165V20.1663C55 20.4102 54.9037 20.643 54.7314 20.8144L51.9814 23.5644C51.81 23.7367 51.5762 23.8329 51.3333 23.8329H41.6295L36.3981 29.0643C36.2267 29.2366 35.9929 29.3328 35.75 29.3328H24.5813C24.2018 30.3971 23.1935 31.1661 22 31.1661C20.4838 31.1661 19.25 29.9323 19.25 28.4162C19.25 26.9001 20.4838 25.6662 22 25.6662ZM44.9167 1.8333C44.4116 1.8333 44 2.24396 44 2.74995C44 3.25595 44.4116 3.66661 44.9167 3.66661C45.4217 3.66661 45.8333 3.25595 45.8333 2.74995C45.8333 2.24396 45.4217 1.8333 44.9167 1.8333ZM22 29.3328C22.5051 29.3328 22.9167 28.9222 22.9167 28.4162C22.9167 27.9102 22.5051 27.4995 22 27.4995C21.4949 27.4995 21.0833 27.9102 21.0833 28.4162C21.0833 28.9222 21.4949 29.3328 22 29.3328Z" fill="#00B2FF"/>
<path d="M2.75016 21.9995C3.17366 21.9995 3.56966 22.1031 3.92808 22.2754L7.3335 18.8701V13.581C6.26925 13.2015 5.50016 12.1932 5.50016 10.9997C5.50016 9.48357 6.734 8.24976 8.25016 8.24976C9.76633 8.24976 11.0002 9.48357 11.0002 10.9997C11.0002 12.1932 10.2311 13.2015 9.16683 13.581V19.2496C9.16683 19.4934 9.07058 19.7262 8.89825 19.8976L5.22425 23.5716C5.39658 23.93 5.50016 24.326 5.50016 24.7495C5.50016 25.943 4.73108 26.9513 3.66683 27.3308V28.0366L10.7316 35.1012C10.9039 35.2726 11.0002 35.5055 11.0002 35.7493V36.8346C12.0644 37.2141 12.8335 38.2224 12.8335 39.4159C12.8335 40.6094 12.0644 41.6177 11.0002 41.9972V44.1687C12.0644 44.5482 12.8335 45.5565 12.8335 46.75C12.8335 48.2662 11.5997 49.5 10.0835 49.5C8.56733 49.5 7.3335 48.2662 7.3335 46.75C7.3335 45.5565 8.10258 44.5482 9.16683 44.1687V41.9972C8.10258 41.6177 7.3335 40.6094 7.3335 39.4159C7.3335 38.2224 8.10258 37.2141 9.16683 36.8346V36.1288L2.10208 29.0642C1.92975 28.8927 1.8335 28.6599 1.8335 28.4161V27.3308C0.769247 26.9513 0.000164032 25.943 0.000164032 24.7495C0.000164032 23.2333 1.234 21.9995 2.75016 21.9995ZM8.25016 11.9164C8.75525 11.9164 9.16683 11.5057 9.16683 10.9997C9.16683 10.4937 8.75525 10.0831 8.25016 10.0831C7.74508 10.0831 7.3335 10.4937 7.3335 10.9997C7.3335 11.5057 7.74508 11.9164 8.25016 11.9164ZM10.0835 47.6658C10.5886 47.6658 11.0002 47.2551 11.0002 46.7491C11.0002 46.2431 10.5886 45.8325 10.0835 45.8325C9.57841 45.8325 9.16683 46.2431 9.16683 46.7491C9.16683 47.2551 9.57841 47.6658 10.0835 47.6658ZM10.0835 40.3326C10.5886 40.3326 11.0002 39.9219 11.0002 39.4159C11.0002 38.9099 10.5886 38.4993 10.0835 38.4993C9.57841 38.4993 9.16683 38.9099 9.16683 39.4159C9.16683 39.9219 9.57841 40.3326 10.0835 40.3326ZM2.75016 25.6661C3.25525 25.6661 3.66683 25.2555 3.66683 24.7495C3.66683 24.2435 3.25525 23.8328 2.75016 23.8328C2.24508 23.8328 1.8335 24.2435 1.8335 24.7495C1.8335 25.2555 2.24508 25.6661 2.75016 25.6661Z" fill="#00B2FF"/>
</svg>
