<svg xmlns="http://www.w3.org/2000/svg" xmlns:xlink="http://www.w3.org/1999/xlink"><symbol id="Union +" viewBox="0 0 15 15"><g fill="none">
<path fill-rule="evenodd" clip-rule="evenodd" d="M7.96875 7.03125V0H7.03125V7.03125H0V7.96875H7.03125V15H7.96875V7.96875H15V7.03125H7.96875Z" fill="#F8FDFF"/>
</g></symbol><symbol id="Vector" viewBox="0 0 9 6"><g fill="none">
<path d="M0.988525 2.33333L3.7778 5L7.96171 1" stroke="white"/>
</g></symbol><symbol id="arrow" viewBox="0 0 5 6"><g fill="none">
<path d="M1.31738 5.53979L3.85707 3.00011L1.31738 0.46043" stroke="white" stroke-linejoin="round"/>
</g></symbol><symbol id="detective" viewBox="0 0 30 30">
<path d="M15 9.44336C14.6766 9.44336 14.4141 9.7501 14.4141 10.1286C14.4141 10.5068 14.6766 10.8138 15 10.8138C15.3234 10.8138 15.5859 10.5068 15.5859 10.1286C15.5859 9.7501 15.3234 9.44336 15 9.44336Z"/>
<path d="M28.2422 13.5548H25.9623C24.7604 9.54141 23.0166 2.50427 19.8576 0.512584C18.2776 -0.482321 16.7841 0.212534 16.2225 1.62419C15.9835 2.22429 15.5063 2.53987 15 2.53987C14.4868 2.53987 14.0135 2.21733 13.7775 1.62473C13.2358 0.261248 11.778 -0.49731 10.2534 0.368046C7.04384 2.19083 5.24895 9.51116 4.0377 13.5548H1.75781C0.786667 13.5548 0 14.4744 0 15.6104C0 16.7437 0.788498 17.6661 1.75781 17.6661H28.2422C29.2133 17.6661 30 16.7461 30 15.6104C30 14.4769 29.2115 13.5548 28.2422 13.5548ZM6.09604 10.8139H12.6562C12.9799 10.8139 13.2422 10.5069 13.2422 10.1287C13.2422 9.75019 12.9799 9.44344 12.6562 9.44344H6.50574C8.27202 3.73766 9.92203 2.07975 10.7652 1.6009C11.6851 1.07896 12.4422 1.51579 12.7151 2.20261C13.1449 3.28237 14.0341 3.9103 15 3.9103C15.9682 3.9103 16.8562 3.27996 17.2849 2.20261C17.5658 1.49625 18.3268 1.10519 19.3016 1.71894C20.1487 2.2532 21.7937 3.96625 23.494 9.44344H17.3438C17.0201 9.44344 16.7578 9.75019 16.7578 10.1287C16.7578 10.5071 17.0201 10.8139 17.3438 10.8139H23.9042C24.2004 11.8128 24.508 12.8436 24.7208 13.5548H5.27939C5.49156 12.8454 5.79849 11.8171 6.09604 10.8139ZM28.2422 16.2956H1.75781C1.43463 16.2956 1.17188 15.9881 1.17188 15.6104C1.17188 15.2319 1.43417 14.9252 1.75781 14.9252H28.2422C28.5654 14.9252 28.8281 15.2325 28.8281 15.6104C28.8281 15.9886 28.5656 16.2956 28.2422 16.2956Z"/>
<path d="M13.8281 20.4069H4.45312C4.12949 20.4069 3.86719 20.7136 3.86719 21.0921V23.833C3.86719 27.2334 6.23291 29.9999 9.14062 29.9999C11.3438 29.9999 13.2939 28.4151 14.0696 26.0276C14.6587 25.7133 15.3413 25.7133 15.9304 26.0276C16.7061 28.4151 18.6562 29.9997 20.8594 29.9997C23.7671 29.9997 26.1328 27.2334 26.1328 23.8327V21.0918C26.1328 20.7134 25.8705 20.4066 25.5469 20.4066H16.1719C15.8482 20.4066 15.5859 20.7134 15.5859 21.0918V21.7771H14.4141V21.0918C14.4141 20.7136 14.1518 20.4069 13.8281 20.4069ZM9.14062 28.6295C6.87904 28.6295 5.03906 26.4778 5.03906 23.833V21.7773H13.2422V23.833C13.2422 26.4847 11.412 28.6295 9.14062 28.6295ZM16.7578 21.7773H24.9609V23.833C24.9609 26.4778 23.121 28.6295 20.8594 28.6295C18.5822 28.6295 16.7578 26.4783 16.7578 23.833V21.7773ZM15.5859 23.1478V23.833C15.5859 24.0519 15.5967 24.2701 15.6161 24.4866C15.209 24.3996 14.791 24.3996 14.3838 24.4866C14.4033 24.2701 14.4141 24.0519 14.4141 23.833V23.1478H15.5859Z"/>
<path d="M9.14062 25.8886C8.17131 25.8886 7.38281 24.9662 7.38281 23.8329C7.38281 23.4544 7.12051 23.1477 6.79688 23.1477C6.47324 23.1477 6.21094 23.4544 6.21094 23.8329C6.21094 25.7218 7.52518 27.259 9.14062 27.259C9.46426 27.259 9.72656 26.952 9.72656 26.5738C9.72656 26.1953 9.46426 25.8886 9.14062 25.8886Z"/>
<path d="M20.8594 27.259C22.4748 27.259 23.7891 25.7218 23.7891 23.8329C23.7891 23.4544 23.5268 23.1477 23.2031 23.1477C22.8795 23.1477 22.6172 23.4544 22.6172 23.8329C22.6172 24.9662 21.8287 25.8886 20.8594 25.8886C20.5357 25.8886 20.2734 26.1953 20.2734 26.5738C20.2734 26.952 20.5357 27.259 20.8594 27.259Z"/>
</symbol><symbol id="hired" viewBox="0 0 30 30">
<path d="M26.7976 23.9084C27.1191 23.464 27.3094 22.9187 27.3094 22.3295V18.8086C27.3094 18.485 27.047 18.2227 26.7234 18.2227H24.1048C22.8942 18.2227 21.9094 19.2075 21.9094 20.418V22.3295C21.9094 22.9183 22.0994 23.4632 22.4205 23.9075C22.02 23.9725 21.6346 24.1008 21.2752 24.2886C20.4611 23.0739 19.1273 22.2361 17.5946 22.0948C17.5887 22.0931 17.5826 22.0918 17.5765 22.0904C18.1249 21.478 18.4592 20.6701 18.4592 19.7854V15C18.4592 14.6764 18.1968 14.4141 17.8733 14.4141H14.3142C12.7849 14.4141 11.5408 15.6582 11.5408 17.1874V19.7853C11.5408 20.6701 11.8751 21.4779 12.4235 22.0903C12.4174 22.0918 12.4113 22.0931 12.4054 22.0947C10.8725 22.236 9.53865 23.0739 8.72461 24.2889C8.36508 24.1011 7.97965 23.9726 7.57928 23.9077C7.90049 23.4634 8.09062 22.9184 8.09062 22.3295V18.8086C8.09062 18.485 7.82824 18.2227 7.50469 18.2227H4.88602C3.67547 18.2227 2.69062 19.2075 2.69062 20.418V22.3295C2.69062 22.9187 2.88088 23.464 3.20244 23.9084C1.38879 24.2048 0 25.7821 0 27.6782V29.4141C0 29.7377 0.262383 30 0.585938 30H29.4141C29.7376 30 30 29.7377 30 29.4141V27.6782C30 25.7821 28.6112 24.2048 26.7976 23.9084ZM3.8625 20.418C3.8625 19.8537 4.32164 19.3945 4.88602 19.3945H6.91875V20.1081C6.91875 20.4581 6.6341 20.7427 6.28424 20.7427H3.8625V20.418ZM3.8625 21.9145H6.28424C6.50748 21.9145 6.72123 21.8736 6.91875 21.7992V22.3295C6.91875 23.1721 6.23326 23.8576 5.39062 23.8576C4.54799 23.8576 3.8625 23.1721 3.8625 22.3295V21.9145ZM5.76838 25.0295L5.39062 25.4072L5.01287 25.0295H5.76838ZM7.88391 27.0548V28.8281H1.17188V27.6782C1.17188 26.364 2.13416 25.2708 3.391 25.0649L4.97631 26.6502C5.08623 26.7601 5.23523 26.8218 5.39062 26.8218C5.54602 26.8218 5.69502 26.7601 5.80494 26.6502L7.39072 25.0644C7.6708 25.1099 7.94016 25.2002 8.19117 25.3323C7.99266 25.8694 7.88391 26.4496 7.88391 27.0548ZM15.0001 22.0727C13.7388 22.0727 12.7127 21.0466 12.7127 19.7854V19.0109H16.2145C16.6028 19.0109 16.9685 18.9117 17.2874 18.7375V19.7854C17.2874 21.0466 16.2613 22.0727 15.0001 22.0727ZM16.0214 23.2445L15 24.2659L13.9786 23.2445H16.0214ZM12.7126 17.1874H12.7127C12.7127 16.3044 13.4311 15.5859 14.3142 15.5859H17.2873V16.7663C17.2873 17.3578 16.806 17.8391 16.2145 17.8391H12.7126V17.1874ZM20.9442 28.8281H19.8047H10.1953H9.05584V27.6562H12.8711C13.1947 27.6562 13.4571 27.3939 13.4571 27.0703C13.4571 26.7467 13.1947 26.4844 12.8711 26.4844H9.09867C9.3498 24.8191 10.6828 23.5045 12.3564 23.2796L14.5857 25.5088C14.7001 25.6233 14.8501 25.6805 15 25.6805C15.1499 25.6805 15.2999 25.6233 15.4143 25.5088L17.6436 23.2796C19.5043 23.5297 20.9442 25.1268 20.9442 27.0548V28.8281ZM23.0813 20.418C23.0813 19.8537 23.5404 19.3945 24.1048 19.3945H26.1375V20.1081C26.1375 20.4581 25.8529 20.7427 25.503 20.7427H23.0813V20.418ZM23.0813 21.9145H25.503C25.7262 21.9145 25.94 21.8736 26.1375 21.7992V22.3295C26.1375 23.1721 25.452 23.8576 24.6094 23.8576C23.7667 23.8576 23.0813 23.1721 23.0813 22.3295V21.9145ZM24.9871 25.0295L24.6094 25.4072L24.2316 25.0295H24.9871ZM22.116 28.8281V27.0548C22.116 26.4496 22.0073 25.8693 21.8087 25.3322C22.0596 25.2 22.3289 25.1098 22.609 25.0642L24.195 26.6502C24.3049 26.7601 24.4539 26.8218 24.6093 26.8218C24.7647 26.8218 24.9137 26.7601 25.0236 26.6502L26.6089 25.0649C27.8658 25.2708 28.8281 26.364 28.8281 27.6782V28.8281H22.116Z"/>
<path d="M17.888 3.82847C17.6591 3.59966 17.2882 3.59966 17.0593 3.82847L14.1841 6.70372L12.9412 5.46077C12.7123 5.2319 12.3414 5.2319 12.1125 5.46071C11.8837 5.68952 11.8837 6.06054 12.1125 6.2894L13.7698 7.94667C13.8797 8.05653 14.0287 8.11829 14.1841 8.11829C14.3395 8.11829 14.4885 8.05653 14.5984 7.94667L17.888 4.6571C18.1168 4.42829 18.1168 4.05728 17.888 3.82847Z"/>
<path d="M17.3955 0.508091C17.1 0.376314 16.7535 0.509029 16.6217 0.804576C16.4898 1.10012 16.6226 1.44659 16.9182 1.57836C18.6173 2.33616 19.7153 4.02758 19.7153 5.88747C19.7153 8.48762 17.5998 10.603 14.9997 10.603C12.3995 10.603 10.2841 8.48762 10.2841 5.88747C10.2841 4.03719 11.3741 2.34928 13.0611 1.58739C13.356 1.4542 13.4871 1.1071 13.3538 0.812193C13.2207 0.517232 12.8734 0.386158 12.5787 0.519341C10.473 1.47044 9.1123 3.57752 9.1123 5.88741C9.11225 9.13379 11.7534 11.7749 14.9997 11.7749C18.246 11.7749 20.8871 9.13379 20.8871 5.88747C20.8871 3.56557 19.5166 1.45403 17.3955 0.508091Z"/>
<path d="M15.021 0H15C14.6764 0 14.4141 0.262324 14.4141 0.585938C14.4141 0.909551 14.6764 1.17188 15 1.17188H15.0155C15.0164 1.17188 15.0173 1.17188 15.0183 1.17188C15.3406 1.17188 15.6026 0.911367 15.6042 0.588691C15.6057 0.265078 15.3446 0.00152344 15.021 0Z"/>
<path d="M15.4142 26.6561C15.3053 26.5471 15.1541 26.4844 15 26.4844C14.8459 26.4844 14.6947 26.5471 14.5857 26.6561C14.4768 26.765 14.4141 26.9162 14.4141 27.0703C14.4141 27.2244 14.4767 27.3756 14.5857 27.4846C14.6948 27.5936 14.8459 27.6562 15 27.6562C15.1541 27.6562 15.3053 27.5936 15.4142 27.4846C15.5232 27.3756 15.5859 27.2244 15.5859 27.0703C15.5859 26.9162 15.5232 26.765 15.4142 26.6561Z"/>
</symbol><symbol id="icon-close" viewBox="0 0 20 20"><g fill="none"><path d="M.293 18.291a1 1 0 101.414 1.414L10 11.413l8.292 8.292a1 1 0 101.414-1.414l-8.292-8.292 8.292-8.292A1 1 0 1018.291.293L9.999 8.585 1.707.293A1 1 0 10.293 1.707L8.585 10 .293 18.291z"/></g></symbol><symbol id="logo-big" viewBox="0 0 55 55"><g fill="none">
<path d="M33.9168 14.6665C35.1103 14.6665 36.1187 15.4356 36.4982 16.4998H46.0022C46.3817 15.4356 47.39 14.6665 48.5835 14.6665C50.0997 14.6665 51.3335 15.9003 51.3335 17.4165C51.3335 18.9326 50.0997 20.1664 48.5835 20.1664C47.39 20.1664 46.3817 19.3973 46.0022 18.3331H36.4972C36.1177 19.3973 35.1094 20.1664 33.9159 20.1664C32.3997 20.1664 31.1659 18.9326 31.1659 17.4165C31.1659 15.9003 32.4007 14.6665 33.9168 14.6665ZM48.5835 18.3331C49.0886 18.3331 49.5002 17.9225 49.5002 17.4165C49.5002 16.9105 49.0886 16.4998 48.5835 16.4998C48.0784 16.4998 47.6668 16.9105 47.6668 17.4165C47.6668 17.9225 48.0784 18.3331 48.5835 18.3331ZM33.9168 18.3331C34.4219 18.3331 34.8335 17.9225 34.8335 17.4165C34.8335 16.9105 34.4219 16.4998 33.9168 16.4998C33.4117 16.4998 33.0002 16.9105 33.0002 17.4165C33.0002 17.9225 33.4117 18.3331 33.9168 18.3331Z" fill="#00B2FF"/>
<path d="M26.5832 20.3349V14.6663C26.5832 14.4225 26.6794 14.1897 26.8518 14.0182L30.5184 10.3516C30.6898 10.1793 30.9236 10.0831 31.1665 10.0831H34.0852C34.4647 9.01883 35.473 8.24976 36.6665 8.24976C38.1827 8.24976 39.4165 9.48357 39.4165 10.9997C39.4165 12.5159 38.1827 13.7497 36.6665 13.7497C35.473 13.7497 34.4647 12.9806 34.0852 11.9164H31.546L28.4165 15.0458V20.3349C29.4808 20.7144 30.2498 21.7227 30.2498 22.9162C30.2498 24.4323 29.016 25.6661 27.4998 25.6661C25.9837 25.6661 24.7498 24.4323 24.7498 22.9162C24.7498 21.7227 25.5189 20.7144 26.5832 20.3349ZM36.6665 11.9164C37.1716 11.9164 37.5832 11.5057 37.5832 10.9997C37.5832 10.4937 37.1716 10.0831 36.6665 10.0831C36.1614 10.0831 35.7498 10.4937 35.7498 10.9997C35.7498 11.5057 36.1614 11.9164 36.6665 11.9164ZM27.4998 23.8328C28.0049 23.8328 28.4165 23.4222 28.4165 22.9162C28.4165 22.4102 28.0049 21.9995 27.4998 21.9995C26.9948 21.9995 26.5832 22.4102 26.5832 22.9162C26.5832 23.4222 26.9948 23.8328 27.4998 23.8328Z" fill="#00B2FF"/>
<path d="M10.0833 23.8329C10.5068 23.8329 10.9028 23.9365 11.2613 24.1089L12.8333 22.5368V13.7498C12.8333 13.5059 12.9296 13.2731 13.1019 13.1017L22.2759 3.92785C22.1036 3.56944 22 3.17345 22 2.74995C22 1.23381 23.2338 0 24.75 0C26.2662 0 27.5 1.23381 27.5 2.74995C27.5 4.2661 26.2662 5.49991 24.75 5.49991C24.3265 5.49991 23.9305 5.39633 23.5721 5.224L14.6667 14.1293V22.9163C14.6667 23.1601 14.5704 23.3929 14.3981 23.5644L12.5574 25.405C12.7298 25.7634 12.8333 26.1594 12.8333 26.5829C12.8333 28.099 11.5995 29.3328 10.0833 29.3328C8.56717 29.3328 7.33333 28.099 7.33333 26.5829C7.33333 25.0667 8.56717 23.8329 10.0833 23.8329ZM24.75 3.66661C25.2551 3.66661 25.6667 3.25595 25.6667 2.74995C25.6667 2.24396 25.2551 1.8333 24.75 1.8333C24.2449 1.8333 23.8333 2.24396 23.8333 2.74995C23.8333 3.25595 24.2449 3.66661 24.75 3.66661ZM10.0833 27.4995C10.5884 27.4995 11 27.0889 11 26.5829C11 26.0769 10.5884 25.6662 10.0833 25.6662C9.57825 25.6662 9.16667 26.0769 9.16667 26.5829C9.16667 27.0889 9.57825 27.4995 10.0833 27.4995Z" fill="#00B2FF"/>
<path d="M1.83333 13.0018V9.16651C1.83333 8.92268 1.92958 8.68986 2.10192 8.51844L8.51858 2.10188C8.69 1.92955 8.92375 1.8333 9.16667 1.8333H13.9187C14.2982 0.769071 15.3065 0 16.5 0C18.0162 0 19.25 1.23381 19.25 2.74995C19.25 4.2661 18.0162 5.49991 16.5 5.49991C15.3065 5.49991 14.2982 4.73084 13.9187 3.66661H9.54617L3.66667 9.54601V13.0018C4.73092 13.3813 5.5 14.3896 5.5 15.5831C5.5 17.0992 4.26617 18.333 2.75 18.333C1.23383 18.333 0 17.0992 0 15.5831C0 14.3896 0.769083 13.3813 1.83333 13.0018ZM16.5 3.66661C17.0051 3.66661 17.4167 3.25595 17.4167 2.74995C17.4167 2.24396 17.0051 1.8333 16.5 1.8333C15.9949 1.8333 15.5833 2.24396 15.5833 2.74995C15.5833 3.25595 15.9949 3.66661 16.5 3.66661ZM2.75 16.4997C3.25508 16.4997 3.66667 16.0891 3.66667 15.5831C3.66667 15.0771 3.25508 14.6664 2.75 14.6664C2.24492 14.6664 1.83333 15.0771 1.83333 15.5831C1.83333 16.0891 2.24492 16.4997 2.75 16.4997Z" fill="#00B2FF"/>
<path d="M14.6658 49.6688V36.4974C13.6024 36.1179 12.8333 35.1096 12.8333 33.9161C12.8333 32.4 14.0672 31.1662 15.5833 31.1662C16.7768 31.1662 17.7852 31.9352 18.1647 32.9995H27.6687C28.0482 31.9352 29.0565 31.1662 30.25 31.1662C31.4435 31.1662 32.4518 31.9352 32.8313 32.9995H38.1205L41.5259 29.5941C41.3536 29.2357 41.25 28.8397 41.25 28.4162C41.25 26.9001 42.4838 25.6663 44 25.6663C45.5162 25.6663 46.75 26.9001 46.75 28.4162C46.75 29.9324 45.5162 31.1662 44 31.1662C43.5765 31.1662 43.1805 31.0626 42.8221 30.8903L39.1481 34.5642C38.9767 34.7365 38.7429 34.8328 38.5 34.8328H32.8313C32.4518 35.897 31.4435 36.6661 30.25 36.6661C29.0565 36.6661 28.0482 35.897 27.6687 34.8328H18.1638C17.8869 35.6092 17.2755 36.2206 16.4991 36.4974V49.6688C17.5633 50.0483 18.3324 51.0566 18.3324 52.2501C18.3324 53.7662 17.0986 55 15.5824 55C14.0663 55 12.8324 53.7662 12.8324 52.2501C12.8324 51.0566 13.6015 50.0483 14.6658 49.6688ZM44 29.3329C44.5051 29.3329 44.9167 28.9222 44.9167 28.4162C44.9167 27.9102 44.5051 27.4996 44 27.4996C43.4949 27.4996 43.0833 27.9102 43.0833 28.4162C43.0833 28.9222 43.4949 29.3329 44 29.3329ZM30.25 34.8328C30.7551 34.8328 31.1667 34.4221 31.1667 33.9161C31.1667 33.4101 30.7551 32.9995 30.25 32.9995C29.7449 32.9995 29.3333 33.4101 29.3333 33.9161C29.3333 34.4221 29.7449 34.8328 30.25 34.8328ZM15.5833 53.1658C16.0884 53.1658 16.5 52.7551 16.5 52.2492C16.5 51.7432 16.0884 51.3325 15.5833 51.3325C15.0783 51.3325 14.6667 51.7432 14.6667 52.2492C14.6667 52.7551 15.0783 53.1658 15.5833 53.1658ZM15.5833 34.8328C16.0884 34.8328 16.5 34.4221 16.5 33.9161C16.5 33.4101 16.0884 32.9995 15.5833 32.9995C15.0783 32.9995 14.6667 33.4101 14.6667 33.9161C14.6667 34.4221 15.0783 34.8328 15.5833 34.8328Z" fill="#00B2FF"/>
<path d="M19.2498 18.5017V15.5831C19.2498 15.3392 19.3461 15.1064 19.5184 14.935L30.5258 3.92785C30.3534 3.56944 30.2498 3.17345 30.2498 2.74995C30.2498 1.23381 31.4837 0 32.9998 0C34.1933 0 35.2017 0.769071 35.5812 1.8333H39.4165C39.9225 1.8333 40.3332 2.24305 40.3332 2.74995V5.12041L43.7386 8.52577C44.097 8.35344 44.493 8.24986 44.9165 8.24986C46.4327 8.24986 47.6665 9.48368 47.6665 10.9998C47.6665 12.516 46.4327 13.7498 44.9165 13.7498C43.4003 13.7498 42.1665 12.516 42.1665 10.9998C42.1665 10.5763 42.2701 10.1803 42.4424 9.82192L38.7684 6.14798C38.5961 5.97657 38.4998 5.74374 38.4998 5.49991V3.66661H35.5812C35.2017 4.73084 34.1933 5.49991 32.9998 5.49991C32.5763 5.49991 32.1803 5.39633 31.8219 5.224L21.0832 15.9626V18.5017C22.1474 18.8812 22.9165 19.8895 22.9165 21.083C22.9165 22.5991 21.6827 23.8329 20.1665 23.8329C18.6503 23.8329 17.4165 22.5991 17.4165 21.083C17.4165 19.8895 18.1856 18.8812 19.2498 18.5017ZM44.9165 11.9165C45.4216 11.9165 45.8332 11.5058 45.8332 10.9998C45.8332 10.4938 45.4216 10.0832 44.9165 10.0832C44.4114 10.0832 43.9998 10.4938 43.9998 10.9998C43.9998 11.5058 44.4114 11.9165 44.9165 11.9165ZM32.9998 3.66661C33.5049 3.66661 33.9165 3.25595 33.9165 2.74995C33.9165 2.24396 33.5049 1.8333 32.9998 1.8333C32.4948 1.8333 32.0832 2.24396 32.0832 2.74995C32.0832 3.25595 32.4948 3.66661 32.9998 3.66661ZM20.1665 21.9996C20.6716 21.9996 21.0832 21.589 21.0832 21.083C21.0832 20.577 20.6716 20.1663 20.1665 20.1663C19.6614 20.1663 19.2498 20.577 19.2498 21.083C19.2498 21.589 19.6614 21.9996 20.1665 21.9996Z" fill="#00B2FF"/>
<path d="M22 25.6662C23.1935 25.6662 24.2018 26.4353 24.5813 27.4995H35.3705L40.6019 22.2682C40.7733 22.0959 41.0071 21.9996 41.25 21.9996H50.9538L53.1667 19.7868V12.296L46.0946 5.224C45.7362 5.39633 45.3402 5.49991 44.9167 5.49991C43.4005 5.49991 42.1667 4.2661 42.1667 2.74995C42.1667 1.23381 43.4005 0 44.9167 0C46.4328 0 47.6667 1.23381 47.6667 2.74995C47.6667 3.17345 47.5631 3.56944 47.3907 3.92785L54.7314 11.2684C54.9037 11.4398 55 11.6726 55 11.9165V20.1663C55 20.4102 54.9037 20.643 54.7314 20.8144L51.9814 23.5644C51.81 23.7367 51.5762 23.8329 51.3333 23.8329H41.6295L36.3981 29.0643C36.2267 29.2366 35.9929 29.3328 35.75 29.3328H24.5813C24.2018 30.3971 23.1935 31.1661 22 31.1661C20.4838 31.1661 19.25 29.9323 19.25 28.4162C19.25 26.9001 20.4838 25.6662 22 25.6662ZM44.9167 1.8333C44.4116 1.8333 44 2.24396 44 2.74995C44 3.25595 44.4116 3.66661 44.9167 3.66661C45.4217 3.66661 45.8333 3.25595 45.8333 2.74995C45.8333 2.24396 45.4217 1.8333 44.9167 1.8333ZM22 29.3328C22.5051 29.3328 22.9167 28.9222 22.9167 28.4162C22.9167 27.9102 22.5051 27.4995 22 27.4995C21.4949 27.4995 21.0833 27.9102 21.0833 28.4162C21.0833 28.9222 21.4949 29.3328 22 29.3328Z" fill="#00B2FF"/>
<path d="M2.75016 21.9995C3.17366 21.9995 3.56966 22.1031 3.92808 22.2754L7.3335 18.8701V13.581C6.26925 13.2015 5.50016 12.1932 5.50016 10.9997C5.50016 9.48357 6.734 8.24976 8.25016 8.24976C9.76633 8.24976 11.0002 9.48357 11.0002 10.9997C11.0002 12.1932 10.2311 13.2015 9.16683 13.581V19.2496C9.16683 19.4934 9.07058 19.7262 8.89825 19.8976L5.22425 23.5716C5.39658 23.93 5.50016 24.326 5.50016 24.7495C5.50016 25.943 4.73108 26.9513 3.66683 27.3308V28.0366L10.7316 35.1012C10.9039 35.2726 11.0002 35.5055 11.0002 35.7493V36.8346C12.0644 37.2141 12.8335 38.2224 12.8335 39.4159C12.8335 40.6094 12.0644 41.6177 11.0002 41.9972V44.1687C12.0644 44.5482 12.8335 45.5565 12.8335 46.75C12.8335 48.2662 11.5997 49.5 10.0835 49.5C8.56733 49.5 7.3335 48.2662 7.3335 46.75C7.3335 45.5565 8.10258 44.5482 9.16683 44.1687V41.9972C8.10258 41.6177 7.3335 40.6094 7.3335 39.4159C7.3335 38.2224 8.10258 37.2141 9.16683 36.8346V36.1288L2.10208 29.0642C1.92975 28.8927 1.8335 28.6599 1.8335 28.4161V27.3308C0.769247 26.9513 0.000164032 25.943 0.000164032 24.7495C0.000164032 23.2333 1.234 21.9995 2.75016 21.9995ZM8.25016 11.9164C8.75525 11.9164 9.16683 11.5057 9.16683 10.9997C9.16683 10.4937 8.75525 10.0831 8.25016 10.0831C7.74508 10.0831 7.3335 10.4937 7.3335 10.9997C7.3335 11.5057 7.74508 11.9164 8.25016 11.9164ZM10.0835 47.6658C10.5886 47.6658 11.0002 47.2551 11.0002 46.7491C11.0002 46.2431 10.5886 45.8325 10.0835 45.8325C9.57841 45.8325 9.16683 46.2431 9.16683 46.7491C9.16683 47.2551 9.57841 47.6658 10.0835 47.6658ZM10.0835 40.3326C10.5886 40.3326 11.0002 39.9219 11.0002 39.4159C11.0002 38.9099 10.5886 38.4993 10.0835 38.4993C9.57841 38.4993 9.16683 38.9099 9.16683 39.4159C9.16683 39.9219 9.57841 40.3326 10.0835 40.3326ZM2.75016 25.6661C3.25525 25.6661 3.66683 25.2555 3.66683 24.7495C3.66683 24.2435 3.25525 23.8328 2.75016 23.8328C2.24508 23.8328 1.8335 24.2435 1.8335 24.7495C1.8335 25.2555 2.24508 25.6661 2.75016 25.6661Z" fill="#00B2FF"/>
</g></symbol><symbol id="logo-small" viewBox="0 0 35 35"><g fill="none">
<path d="M21.5837 9.33319C22.3432 9.33319 22.9848 9.8226 23.2263 10.4998H29.2743C29.5158 9.8226 30.1575 9.33319 30.917 9.33319C31.8818 9.33319 32.667 10.1183 32.667 11.0832C32.667 12.048 31.8818 12.8331 30.917 12.8331C30.1575 12.8331 29.5158 12.3437 29.2743 11.6665H23.2257C22.9842 12.3437 22.3426 12.8331 21.5831 12.8331C20.6182 12.8331 19.8331 12.048 19.8331 11.0832C19.8331 10.1183 20.6188 9.33319 21.5837 9.33319ZM30.917 11.6665C31.2384 11.6665 31.5003 11.4052 31.5003 11.0832C31.5003 10.7612 31.2384 10.4998 30.917 10.4998C30.5956 10.4998 30.3337 10.7612 30.3337 11.0832C30.3337 11.4052 30.5956 11.6665 30.917 11.6665ZM21.5837 11.6665C21.9051 11.6665 22.167 11.4052 22.167 11.0832C22.167 10.7612 21.9051 10.4998 21.5837 10.4998C21.2622 10.4998 21.0003 10.7612 21.0003 11.0832C21.0003 11.4052 21.2622 11.6665 21.5837 11.6665Z" fill="#00B2FF"/>
<path d="M16.9173 12.9405V9.33319C16.9173 9.17802 16.9786 9.02986 17.0882 8.92078L19.4216 6.58748C19.5307 6.47782 19.6794 6.41657 19.834 6.41657H21.6913C21.9328 5.73933 22.5745 5.24992 23.334 5.24992C24.2988 5.24992 25.084 6.03508 25.084 6.99989C25.084 7.96471 24.2988 8.74987 23.334 8.74987C22.5745 8.74987 21.9328 8.26046 21.6913 7.58322H20.0755L18.084 9.57468V12.9405C18.7612 13.182 19.2507 13.8236 19.2507 14.5831C19.2507 15.5479 18.4655 16.3331 17.5007 16.3331C16.5358 16.3331 15.7507 15.5479 15.7507 14.5831C15.7507 13.8236 16.2401 13.182 16.9173 12.9405ZM23.334 7.58322C23.6554 7.58322 23.9173 7.32189 23.9173 6.99989C23.9173 6.6779 23.6554 6.41657 23.334 6.41657C23.0126 6.41657 22.7507 6.6779 22.7507 6.99989C22.7507 7.32189 23.0126 7.58322 23.334 7.58322ZM17.5007 15.1664C17.8221 15.1664 18.084 14.9051 18.084 14.5831C18.084 14.2611 17.8221 13.9998 17.5007 13.9998C17.1792 13.9998 16.9173 14.2611 16.9173 14.5831C16.9173 14.9051 17.1792 15.1664 17.5007 15.1664Z" fill="#00B2FF"/>
<path d="M6.41716 15.1664C6.68666 15.1664 6.93865 15.2323 7.16674 15.342L8.16716 14.3416V8.74986C8.16716 8.59469 8.2284 8.44653 8.33807 8.33745L14.1761 2.49954C14.0664 2.27146 14.0005 2.01947 14.0005 1.74997C14.0005 0.785154 14.7857 0 15.7505 0C16.7153 0 17.5005 0.785154 17.5005 1.74997C17.5005 2.71479 16.7153 3.49994 15.7505 3.49994C15.481 3.49994 15.229 3.43403 15.0009 3.32436L9.33382 8.99135V14.5831C9.33382 14.7383 9.27257 14.8864 9.16291 14.9955L7.99157 16.1668C8.10124 16.3949 8.16716 16.6469 8.16716 16.9164C8.16716 17.8812 7.38199 18.6664 6.41716 18.6664C5.45232 18.6664 4.66716 17.8812 4.66716 16.9164C4.66716 15.9516 5.45232 15.1664 6.41716 15.1664ZM15.7505 2.33329C16.0719 2.33329 16.3338 2.07197 16.3338 1.74997C16.3338 1.42798 16.0719 1.16665 15.7505 1.16665C15.4291 1.16665 15.1672 1.42798 15.1672 1.74997C15.1672 2.07197 15.4291 2.33329 15.7505 2.33329ZM6.41716 17.4997C6.73857 17.4997 7.00049 17.2384 7.00049 16.9164C7.00049 16.5944 6.73857 16.3331 6.41716 16.3331C6.09574 16.3331 5.83382 16.5944 5.83382 16.9164C5.83382 17.2384 6.09574 17.4997 6.41716 17.4997Z" fill="#00B2FF"/>
<path d="M1.16716 8.27386V5.83324C1.16716 5.67807 1.2284 5.52991 1.33807 5.42083L5.4214 1.33756C5.53049 1.2279 5.67924 1.16665 5.83382 1.16665H8.85782C9.09932 0.489408 9.74099 0 10.5005 0C11.4653 0 12.2505 0.785154 12.2505 1.74997C12.2505 2.71479 11.4653 3.49994 10.5005 3.49994C9.74099 3.49994 9.09932 3.01053 8.85782 2.33329H6.07532L2.33382 6.07473V8.27386C3.01107 8.51536 3.50049 9.15701 3.50049 9.9165C3.50049 10.8813 2.71532 11.6665 1.75049 11.6665C0.785655 11.6665 0.000488281 10.8813 0.000488281 9.9165C0.000488281 9.15701 0.489905 8.51536 1.16716 8.27386ZM10.5005 2.33329C10.8219 2.33329 11.0838 2.07197 11.0838 1.74997C11.0838 1.42798 10.8219 1.16665 10.5005 1.16665C10.1791 1.16665 9.91716 1.42798 9.91716 1.74997C9.91716 2.07197 10.1791 2.33329 10.5005 2.33329ZM1.75049 10.4998C2.07191 10.4998 2.33382 10.2385 2.33382 9.9165C2.33382 9.59451 2.07191 9.33318 1.75049 9.33318C1.42907 9.33318 1.16716 9.59451 1.16716 9.9165C1.16716 10.2385 1.42907 10.4998 1.75049 10.4998Z" fill="#00B2FF"/>
<path d="M9.33324 31.6074V23.2256C8.65657 22.9841 8.16716 22.3425 8.16716 21.583C8.16716 20.6182 8.95232 19.833 9.91716 19.833C10.6767 19.833 11.3183 20.3224 11.5598 20.9997H17.6078C17.8493 20.3224 18.491 19.833 19.2505 19.833C20.01 19.833 20.6517 20.3224 20.8932 20.9997H24.259L26.4261 18.8326C26.3164 18.6045 26.2505 18.3525 26.2505 18.083C26.2505 17.1182 27.0357 16.3331 28.0005 16.3331C28.9653 16.3331 29.7505 17.1182 29.7505 18.083C29.7505 19.0479 28.9653 19.833 28.0005 19.833C27.731 19.833 27.479 19.7671 27.2509 19.6574L24.9129 21.9954C24.8038 22.1051 24.6551 22.1663 24.5005 22.1663H20.8932C20.6517 22.8435 20.01 23.333 19.2505 23.333C18.491 23.333 17.8493 22.8435 17.6078 22.1663H11.5592C11.3831 22.6604 10.994 23.0495 10.4999 23.2256V31.6074C11.1772 31.8489 11.6666 32.4905 11.6666 33.25C11.6666 34.2149 10.8814 35 9.91657 35C8.95174 35 8.16657 34.2149 8.16657 33.25C8.16657 32.4905 8.65599 31.8489 9.33324 31.6074ZM28.0005 18.6664C28.3219 18.6664 28.5838 18.405 28.5838 18.083C28.5838 17.761 28.3219 17.4997 28.0005 17.4997C27.6791 17.4997 27.4172 17.761 27.4172 18.083C27.4172 18.405 27.6791 18.6664 28.0005 18.6664ZM19.2505 22.1663C19.5719 22.1663 19.8338 21.905 19.8338 21.583C19.8338 21.261 19.5719 20.9997 19.2505 20.9997C18.9291 20.9997 18.6672 21.261 18.6672 21.583C18.6672 21.905 18.9291 22.1663 19.2505 22.1663ZM9.91716 33.8328C10.2386 33.8328 10.5005 33.5714 10.5005 33.2495C10.5005 32.9275 10.2386 32.6661 9.91716 32.6661C9.59574 32.6661 9.33382 32.9275 9.33382 33.2495C9.33382 33.5714 9.59574 33.8328 9.91716 33.8328ZM9.91716 22.1663C10.2386 22.1663 10.5005 21.905 10.5005 21.583C10.5005 21.261 10.2386 20.9997 9.91716 20.9997C9.59574 20.9997 9.33382 21.261 9.33382 21.583C9.33382 21.905 9.59574 22.1663 9.91716 22.1663Z" fill="#00B2FF"/>
<path d="M12.2507 11.7738V9.9165C12.2507 9.76134 12.3119 9.61317 12.4216 9.50409L19.4262 2.49954C19.3166 2.27146 19.2507 2.01947 19.2507 1.74997C19.2507 0.785154 20.0358 0 21.0007 0C21.7602 0 22.4018 0.489408 22.6433 1.16665H25.084C25.406 1.16665 25.6673 1.42739 25.6673 1.74997V3.25845L27.8344 5.42549C28.0625 5.31583 28.3145 5.24991 28.584 5.24991C29.5488 5.24991 30.334 6.03507 30.334 6.99988C30.334 7.9647 29.5488 8.74985 28.584 8.74985C27.6192 8.74985 26.834 7.9647 26.834 6.99988C26.834 6.73039 26.8999 6.47839 27.0096 6.25031L24.6716 3.91235C24.5619 3.80327 24.5007 3.65511 24.5007 3.49994V2.33329H22.6433C22.4018 3.01053 21.7602 3.49994 21.0007 3.49994C20.7312 3.49994 20.4792 3.43403 20.2511 3.32436L13.4173 10.158V11.7738C14.0946 12.0153 14.584 12.657 14.584 13.4164C14.584 14.3813 13.7988 15.1664 12.834 15.1664C11.8692 15.1664 11.084 14.3813 11.084 13.4164C11.084 12.657 11.5734 12.0153 12.2507 11.7738ZM28.584 7.58321C28.9054 7.58321 29.1673 7.32188 29.1673 6.99988C29.1673 6.67789 28.9054 6.41656 28.584 6.41656C28.2626 6.41656 28.0007 6.67789 28.0007 6.99988C28.0007 7.32188 28.2626 7.58321 28.584 7.58321ZM21.0007 2.33329C21.3221 2.33329 21.584 2.07197 21.584 1.74997C21.584 1.42798 21.3221 1.16665 21.0007 1.16665C20.6792 1.16665 20.4173 1.42798 20.4173 1.74997C20.4173 2.07197 20.6792 2.33329 21.0007 2.33329ZM12.834 13.9998C13.1554 13.9998 13.4173 13.7384 13.4173 13.4164C13.4173 13.0944 13.1554 12.8331 12.834 12.8331C12.5126 12.8331 12.2507 13.0944 12.2507 13.4164C12.2507 13.7384 12.5126 13.9998 12.834 13.9998Z" fill="#00B2FF"/>
<path d="M14.0005 16.3331C14.76 16.3331 15.4016 16.8225 15.6431 17.4997H22.509L25.8381 14.1707C25.9472 14.061 26.0959 13.9998 26.2505 13.9998H32.4257L33.8338 12.5916V7.8247L29.3334 3.32436C29.1053 3.43403 28.8533 3.49994 28.5838 3.49994C27.619 3.49994 26.8338 2.71479 26.8338 1.74997C26.8338 0.785154 27.619 0 28.5838 0C29.5487 0 30.3338 0.785154 30.3338 1.74997C30.3338 2.01947 30.2679 2.27146 30.1582 2.49954L34.8296 7.1708C34.9392 7.27988 35.0005 7.42804 35.0005 7.58321V12.8331C35.0005 12.9883 34.9392 13.1364 34.8296 13.2455L33.0796 14.9955C32.9705 15.1052 32.8217 15.1664 32.6672 15.1664H26.492L23.1629 18.4954C23.0538 18.6051 22.9051 18.6664 22.7505 18.6664H15.6431C15.4016 19.3436 14.76 19.833 14.0005 19.833C13.0356 19.833 12.2505 19.0478 12.2505 18.083C12.2505 17.1182 13.0356 16.3331 14.0005 16.3331ZM28.5838 1.16665C28.2624 1.16665 28.0005 1.42798 28.0005 1.74997C28.0005 2.07197 28.2624 2.33329 28.5838 2.33329C28.9052 2.33329 29.1672 2.07197 29.1672 1.74997C29.1672 1.42798 28.9052 1.16665 28.5838 1.16665ZM14.0005 18.6664C14.3219 18.6664 14.5838 18.405 14.5838 18.083C14.5838 17.761 14.3219 17.4997 14.0005 17.4997C13.6791 17.4997 13.4171 17.761 13.4171 18.083C13.4171 18.405 13.6791 18.6664 14.0005 18.6664Z" fill="#00B2FF"/>
<path d="M1.75033 13.9998C2.01983 13.9998 2.27183 14.0657 2.49991 14.1754L4.66699 12.0083V8.64253C3.98974 8.40104 3.50033 7.75938 3.50033 6.99989C3.50033 6.03508 4.28549 5.24992 5.25033 5.24992C6.21516 5.24992 7.00033 6.03508 7.00033 6.99989C7.00033 7.75938 6.51091 8.40104 5.83366 8.64253V12.2498C5.83366 12.405 5.77241 12.5531 5.66274 12.6622L3.32474 15.0002C3.43441 15.2283 3.50033 15.4803 3.50033 15.7497C3.50033 16.5092 3.01091 17.1509 2.33366 17.3924V17.8415L6.82941 22.3372C6.93908 22.4463 7.00033 22.5945 7.00033 22.7496V23.4403C7.67758 23.6818 8.16699 24.3234 8.16699 25.0829C8.16699 25.8424 7.67758 26.4841 7.00033 26.7256V28.1075C7.67758 28.349 8.16699 28.9906 8.16699 29.7501C8.16699 30.7149 7.38183 31.5001 6.41699 31.5001C5.45216 31.5001 4.66699 30.7149 4.66699 29.7501C4.66699 28.9906 5.15641 28.349 5.83366 28.1075V26.7256C5.15641 26.4841 4.66699 25.8424 4.66699 25.0829C4.66699 24.3234 5.15641 23.6818 5.83366 23.4403V22.9911L1.33791 18.4955C1.22824 18.3864 1.16699 18.2382 1.16699 18.083V17.3924C0.489742 17.1509 0.000326157 16.5092 0.000326157 15.7497C0.000326157 14.7849 0.785492 13.9998 1.75033 13.9998ZM5.25033 7.58322C5.57174 7.58322 5.83366 7.32189 5.83366 6.99989C5.83366 6.6779 5.57174 6.41657 5.25033 6.41657C4.92891 6.41657 4.66699 6.6779 4.66699 6.99989C4.66699 7.32189 4.92891 7.58322 5.25033 7.58322ZM6.41699 30.3328C6.73841 30.3328 7.00033 30.0715 7.00033 29.7495C7.00033 29.4275 6.73841 29.1662 6.41699 29.1662C6.09558 29.1662 5.83366 29.4275 5.83366 29.7495C5.83366 30.0715 6.09558 30.3328 6.41699 30.3328ZM6.41699 25.6663C6.73841 25.6663 7.00033 25.4049 7.00033 25.0829C7.00033 24.7609 6.73841 24.4996 6.41699 24.4996C6.09558 24.4996 5.83366 24.7609 5.83366 25.0829C5.83366 25.4049 6.09558 25.6663 6.41699 25.6663ZM1.75033 16.3331C2.07174 16.3331 2.33366 16.0717 2.33366 15.7497C2.33366 15.4278 2.07174 15.1664 1.75033 15.1664C1.42891 15.1664 1.16699 15.4278 1.16699 15.7497C1.16699 16.0717 1.42891 16.3331 1.75033 16.3331Z" fill="#00B2FF"/>
</g></symbol><symbol id="mail" viewBox="0 0 20 20"><g fill="none">
<path d="M17.5584 0H2.44568C1.09663 0 0 1.441 0 3.2137V16.7863C0 18.559 1.09663 20 2.44568 20H17.5543C18.9034 20 20 18.559 20 16.7863V3.21914C20.0041 1.44644 18.9075 0 17.5584 0ZM18.8868 16.7863C18.8868 17.7488 18.2909 18.5318 17.5584 18.5318H2.44568C1.71322 18.5318 1.11732 17.7488 1.11732 16.7863V3.21914C1.11732 2.25666 1.71322 1.47363 2.44568 1.47363H17.5543C18.2868 1.47363 18.8827 2.25666 18.8827 3.21914V16.7863H18.8868Z" fill="#00B2FF"/>
<path d="M12.6133 9.83144L17.5046 4.06744C17.7322 3.79555 17.7529 3.33334 17.546 3.02883C17.3391 2.72975 16.9873 2.70256 16.7556 2.97445L10.0103 10.9299L8.69436 9.38554C8.69023 9.38011 8.68609 9.37467 8.68609 9.36923C8.65712 9.33117 8.62815 9.29854 8.59505 9.26591L3.2402 2.96901C3.00846 2.69713 2.65671 2.72431 2.4498 3.02883C2.24289 3.33334 2.26358 3.79555 2.49532 4.06744L7.44462 9.88038L2.51601 15.9435C2.29255 16.2208 2.28013 16.683 2.49118 16.9821C2.60291 17.1343 2.75189 17.2159 2.90086 17.2159C3.03743 17.2159 3.17399 17.1506 3.28158 17.0201L8.28468 10.87L9.64201 12.4633C9.74961 12.5884 9.88203 12.6482 10.0145 12.6482C10.1469 12.6482 10.2834 12.5829 10.3869 12.4579L11.7815 10.8157L16.7556 17.0256C16.8632 17.1615 17.0039 17.2268 17.1405 17.2268C17.2894 17.2268 17.4343 17.1506 17.546 16.9984C17.7571 16.7047 17.7488 16.2371 17.5253 15.9598L12.6133 9.83144Z" fill="#00B2FF"/>
</g></symbol><symbol id="not-needed-in-sprite" viewBox="0 0 16 16"><g fill="none"><circle cx="8" cy="8" r="8" fill="#081597"/></g></symbol><symbol id="ok" viewBox="0 0 30 30"><g fill="none">
<path d="M15.171 12.6428C16.3282 12.6428 17.2282 11.6785 17.2067 10.6285C17.2282 9.57849 16.3496 8.59277 15.1924 8.59277C14.0782 8.59277 13.1567 9.49277 13.1567 10.6071C13.1567 11.7213 14.0567 12.6428 15.171 12.6428Z" fill="#F8FDFF"/>
<path d="M15 0C6.72856 0 0 6.72857 0 15C0 23.2929 6.72856 30 15 30C23.2928 30 29.9999 23.2714 29.9999 15C30.0214 6.72857 23.2928 0 15 0ZM15.2143 5.67857C17.9143 5.67857 20.1428 7.90714 20.1214 10.6286C20.1214 13.3714 17.8714 15.5786 15.1285 15.5357C12.4285 15.4929 10.2643 13.2857 10.2643 10.6071C10.2643 7.88571 12.4714 5.67857 15.2143 5.67857ZM20.7214 17.25C20.7214 17.2929 20.7 17.3143 20.7 17.3571C20.6357 17.7857 20.4214 18.1286 20.0571 18.3643C19.8214 18.5143 19.5643 18.6643 19.3071 18.7929C18.6643 19.1143 17.9785 19.3714 17.2714 19.5429C17.1857 19.5643 17.1857 19.5643 17.25 19.6286C17.6357 20.0143 18.0428 20.4214 18.4285 20.8071C18.9214 21.3 19.4357 21.8143 19.9285 22.3071C20.6357 23.0143 20.4428 24.1929 19.5428 24.6214C19.3928 24.7071 19.2214 24.7286 19.05 24.7714C18.9643 24.7714 18.8571 24.7714 18.7714 24.7714C18.75 24.7714 18.7285 24.7714 18.7285 24.75C18.3857 24.7071 18.1071 24.5357 17.85 24.3C16.9928 23.4429 16.1143 22.5643 15.2571 21.7071C15.1928 21.6429 15.1928 21.6429 15.1285 21.7071C14.25 22.5857 13.3928 23.4429 12.5143 24.3214C12.3643 24.4714 12.2143 24.5786 12.0214 24.6643C11.8928 24.7286 11.7428 24.75 11.6143 24.7714C11.5286 24.7714 11.4428 24.7714 11.3357 24.7714C11.2928 24.7714 11.2714 24.75 11.2286 24.75C10.65 24.6429 10.2643 24.3214 10.0928 23.7643C9.92141 23.2071 10.05 22.7143 10.4571 22.3071C10.8214 21.9429 11.1643 21.6 11.5286 21.2357C12.0643 20.7 12.6 20.1643 13.1143 19.65C13.1785 19.5857 13.1785 19.5857 13.0928 19.5643C13.0714 19.5643 13.0285 19.5429 13.0071 19.5429C12.0428 19.3071 11.1643 18.9214 10.3286 18.4071C9.8357 18.0857 9.59998 17.6143 9.66427 17.0357C9.77141 15.9643 10.9714 15.3857 11.8714 15.9643C12.0428 16.0714 12.1928 16.1571 12.3857 16.2429C13.3714 16.7357 14.4214 16.95 15.5143 16.8857C16.05 16.8643 16.5857 16.7571 17.1214 16.5857C17.6357 16.4143 18.0857 16.1786 18.5571 15.9214C19.3285 15.4714 20.3357 15.8357 20.6357 16.6714C20.6785 16.8 20.7 16.9071 20.7214 17.0357C20.7214 17.1 20.7214 17.1643 20.7214 17.25Z" fill="#F8FDFF"/>
</g></symbol><symbol id="phone" viewBox="0 0 20 20"><g fill="none">
<path d="M15.8147 12.3893C15.4047 11.9629 14.9101 11.735 14.3859 11.735C13.866 11.735 13.3672 11.9587 12.9402 12.3851L11.6044 13.7147C11.4945 13.6556 11.3846 13.6007 11.2789 13.5459C11.1267 13.4699 10.983 13.3981 10.8604 13.3222C9.6091 12.5286 8.47196 11.4944 7.38132 10.1563C6.85291 9.48936 6.49782 8.92795 6.23995 8.35809C6.58659 8.04151 6.90786 7.71226 7.22068 7.39567C7.33905 7.27748 7.45741 7.15507 7.57578 7.03688C8.4635 6.15044 8.4635 5.00229 7.57578 4.11585L6.42173 2.96348C6.29068 2.83262 6.15541 2.69755 6.02859 2.56247C5.77495 2.30076 5.50863 2.03061 5.23386 1.77734C4.82381 1.37211 4.33345 1.15683 3.81772 1.15683C3.30199 1.15683 2.80317 1.37211 2.38045 1.77734C2.37622 1.78156 2.37622 1.78156 2.37199 1.78578L0.934715 3.23363C0.393623 3.77394 0.0850312 4.43243 0.0173946 5.19646C-0.0840601 6.42903 0.279486 7.57718 0.558487 8.32854C1.24331 10.1732 2.26631 11.8827 3.79236 13.7147C5.64391 15.9224 7.87168 17.6657 10.4165 18.8941C11.3888 19.3542 12.6866 19.8987 14.1365 19.9916C14.2253 19.9958 14.3183 20 14.4028 20C15.3793 20 16.1994 19.6496 16.842 18.9532C16.8462 18.9447 16.8547 18.9405 16.8589 18.932C17.0787 18.6661 17.3323 18.4255 17.5987 18.168C17.7804 17.995 17.9664 17.8134 18.1482 17.6235C18.5667 17.1887 18.7865 16.6822 18.7865 16.163C18.7865 15.6396 18.5625 15.1372 18.1355 14.7151L15.8147 12.3893ZM17.3281 16.8341C17.3239 16.8341 17.3239 16.8384 17.3281 16.8341C17.1633 17.0114 16.9942 17.1718 16.8124 17.3491C16.5376 17.6108 16.2586 17.8852 15.9965 18.1933C15.5696 18.6492 15.0665 18.8645 14.4071 18.8645C14.3437 18.8645 14.276 18.8645 14.2126 18.8603C12.9571 18.7801 11.7904 18.2904 10.9153 17.8725C8.52269 16.7159 6.42173 15.0739 4.67586 12.9929C3.23436 11.258 2.27054 9.65398 1.63222 7.93176C1.23908 6.88069 1.09535 6.06179 1.15876 5.28932C1.20103 4.79545 1.39126 4.386 1.74213 4.03565L3.18363 2.59624C3.39077 2.40207 3.61058 2.29654 3.82618 2.29654C4.09249 2.29654 4.30809 2.45694 4.44336 2.59202C4.44759 2.59624 4.45181 2.60046 4.45604 2.60468C4.7139 2.84529 4.95909 3.09433 5.21695 3.36026C5.348 3.49534 5.48327 3.63042 5.61854 3.76971L6.77259 4.92209C7.22068 5.36953 7.22068 5.7832 6.77259 6.23064C6.65 6.35305 6.53164 6.47546 6.40905 6.59366C6.05395 6.95667 5.71577 7.29437 5.348 7.62361C5.33954 7.63206 5.33109 7.63628 5.32686 7.64472C4.96332 8.00774 5.03095 8.36231 5.10704 8.60292C5.11127 8.61558 5.1155 8.62824 5.11972 8.64091C5.41986 9.36694 5.84259 10.0508 6.48514 10.8654L6.48936 10.8697C7.65609 12.3049 8.88623 13.4235 10.2432 14.2803C10.4165 14.3901 10.5941 14.4787 10.7631 14.5632C10.9153 14.6391 11.0591 14.7109 11.1816 14.7869C11.1986 14.7953 11.2155 14.808 11.2324 14.8164C11.3761 14.8882 11.5114 14.922 11.6509 14.922C12.0017 14.922 12.2216 14.7025 12.2934 14.6307L13.7392 13.1871C13.8829 13.0436 14.1112 12.8705 14.3775 12.8705C14.6396 12.8705 14.8552 13.0351 14.9862 13.1786C14.9904 13.1829 14.9904 13.1829 14.9947 13.1871L17.3239 15.5129C17.7593 15.9435 17.7593 16.3867 17.3281 16.8341Z" fill="#00B2FF"/>
<path d="M10.8096 4.75747C11.9171 4.9432 12.9232 5.46662 13.7264 6.26863C14.5296 7.07065 15.0496 8.07528 15.2398 9.18122C15.2863 9.45981 15.5272 9.65399 15.802 9.65399C15.8358 9.65399 15.8654 9.64977 15.8992 9.64554C16.2121 9.59489 16.4192 9.29941 16.3685 8.98705C16.1402 7.64895 15.5061 6.42904 14.5381 5.4624C13.57 4.49576 12.3483 3.86258 11.0083 3.63464C10.6955 3.58399 10.4038 3.79083 10.3488 4.09897C10.2939 4.40711 10.4968 4.70681 10.8096 4.75747Z" fill="#00B2FF"/>
<path d="M19.9914 8.82242C19.6152 6.61899 18.5752 4.61395 16.9773 3.01836C15.3794 1.42277 13.3715 0.384369 11.1648 0.00868773C10.8562 -0.0461871 10.5645 0.16487 10.5096 0.473013C10.4589 0.785377 10.666 1.07664 10.9788 1.13151C12.9487 1.46498 14.7453 2.39785 16.1741 3.82038C17.603 5.24712 18.533 7.0411 18.8669 9.00815C18.9134 9.28675 19.1544 9.48092 19.4292 9.48092C19.463 9.48092 19.4926 9.4767 19.5264 9.47248C19.835 9.42605 20.0463 9.13057 19.9914 8.82242Z" fill="#00B2FF"/>
</g></symbol><symbol id="pinterest" viewBox="0 0 30 30"><g fill="none">
<path d="M14.9999 0C23.2847 0 30 6.71625 30 15.0001C30 23.2848 23.2847 30 14.9999 30C6.71522 30 0 23.2847 0 15.0001C0 6.71625 6.71532 0 14.9999 0Z" fill="#F8FDFF"/>
<path d="M15 5C9.4823 5 5 9.4823 5 15C5 20.5177 9.4823 25 15 25C20.5177 25 25 20.5177 25 15C25 9.4823 20.5177 5 15 5ZM15 5.86957C20.0477 5.86957 24.1304 9.95225 24.1304 15C24.1304 20.0477 20.0477 24.1304 15 24.1304C14.0767 24.1304 13.186 23.9922 12.3463 23.7381C12.7203 23.1128 13.2032 22.219 13.395 21.481C13.509 21.0434 13.9776 19.2587 13.9776 19.2587C14.2821 19.84 15.1719 20.332 16.1192 20.332C18.9383 20.332 20.9706 17.7394 20.9706 14.5177C20.9706 11.4289 18.4502 9.11855 15.2072 9.11855C11.1725 9.11855 9.03108 11.8264 9.03108 14.775C9.03108 16.1462 9.7604 17.8531 10.9282 18.3967C11.105 18.4791 11.2 18.4434 11.2407 18.2719C11.2719 18.1418 11.4297 17.5073 11.5005 17.2121C11.5232 17.1179 11.5122 17.0365 11.436 16.9438C11.0495 16.475 10.7396 15.6138 10.7396 14.8106C10.7396 12.7487 12.3006 10.7532 14.9601 10.7532C17.2564 10.7532 18.8646 12.3186 18.8646 14.5567C18.8646 17.0853 17.5879 18.8375 15.9265 18.8375C15.0089 18.8375 14.3219 18.0784 14.5423 17.1476C14.8065 16.0366 15.3167 14.8378 15.3167 14.0353C15.3167 13.3177 14.9316 12.7191 14.1338 12.7191C13.1958 12.7191 12.4423 13.6889 12.4423 14.989C12.4423 15.8162 12.7225 16.3765 12.7225 16.3765C12.7225 16.3765 11.7959 20.2941 11.6262 21.0233C11.4561 21.7519 11.5017 22.7332 11.5718 23.4638C8.22658 22.1098 5.86957 18.8345 5.86957 15C5.86957 9.95225 9.95225 5.86957 15 5.86957Z" fill="#041827"/>
</g></symbol><symbol id="stopwatch" viewBox="0 0 30 30">
<path d="M3.29827 9.99619L1.7606 8.73459C0.925222 8.04955 0.925222 6.93443 1.7606 6.24893C2.59598 5.56366 3.95536 5.56366 4.79074 6.24893L6.43248 7.59567C8.14509 6.6172 10.0974 5.93994 12.1429 5.61493V3.86719H10.7143C10.3198 3.86719 10 3.60489 10 3.28125V1.75781C10 0.788498 10.9612 0 12.1429 0H17.8571C19.0388 0 20 0.788498 20 1.75781V3.28125C20 3.60489 19.6802 3.86719 19.2857 3.86719H17.8571V5.61493C19.9023 5.93971 21.8549 6.6172 23.5675 7.59567L25.2093 6.24893C26.0444 5.56366 27.4037 5.56366 28.2394 6.24893C29.0748 6.9342 29.0748 8.04932 28.2394 8.73459L26.7017 9.99619C28.8331 12.174 30 14.8867 30 17.6953C30 24.4801 23.2709 30 15 30C6.72907 30 -1.90735e-06 24.4801 -1.90735e-06 17.6953C-1.90735e-06 14.8867 1.16685 12.174 3.29827 9.99619ZM3.78069 7.07748C3.50195 6.84906 3.04911 6.84929 2.77065 7.07748C2.49247 7.30591 2.49247 7.67761 2.77065 7.90604L4.24665 9.11659C4.57924 8.83644 4.92801 8.56934 5.29074 8.31642L3.78069 7.07748ZM18.5714 1.75781C18.5714 1.43463 18.2511 1.17188 17.8571 1.17188H12.1429C11.7489 1.17188 11.4286 1.43463 11.4286 1.75781V2.69531H18.5714V1.75781ZM13.5714 3.86719V5.44601C14.5181 5.37323 15.4816 5.37323 16.4286 5.44601V3.86719H13.5714ZM27.2294 7.07748C26.9509 6.84929 26.4978 6.84906 26.2193 7.07748L24.7093 8.31642C25.072 8.56934 25.4208 8.83644 25.7533 9.11659L27.2294 7.90604C27.5075 7.67761 27.5075 7.30591 27.2294 7.07748ZM15 28.8281C22.4833 28.8281 28.5714 23.8339 28.5714 17.6953C28.5714 14.9874 27.373 12.3784 25.1973 10.3484C24.5979 9.78928 23.9291 9.27841 23.2095 8.82935C21.4062 7.7037 19.2718 6.96281 17.0368 6.68655C16.368 6.60439 15.6828 6.5625 15 6.5625C14.3172 6.5625 13.632 6.60439 12.9634 6.68655C10.7282 6.96281 8.59375 7.7037 6.79018 8.82935C6.07087 9.27841 5.40206 9.78928 4.80273 10.3484C2.62695 12.3784 1.42857 14.9874 1.42857 17.6953C1.42857 23.8339 7.51674 28.8281 15 28.8281Z"/>
<path d="M15.0002 19.4531C13.8186 19.4531 12.8574 18.6646 12.8574 17.6953C12.8574 16.9315 13.4545 16.2801 14.2859 16.0382V11.8359C14.2859 11.5123 14.6057 11.25 15.0002 11.25C15.3947 11.25 15.7145 11.5123 15.7145 11.8359V16.0382C16.546 16.2801 17.1431 16.9315 17.1431 17.6953C17.1431 18.6646 16.1819 19.4531 15.0002 19.4531ZM15.0002 17.1094C14.6062 17.1094 14.2859 17.3721 14.2859 17.6953C14.2859 18.0185 14.6062 18.2812 15.0002 18.2812C15.3942 18.2812 15.7145 18.0185 15.7145 17.6953C15.7145 17.3721 15.3942 17.1094 15.0002 17.1094Z"/>
<path d="M7.39049 11.5136C7.40165 11.5028 7.41281 11.4921 7.42536 11.482C7.43876 11.4708 7.45299 11.4607 7.46722 11.4506C8.72614 10.4289 10.2814 9.67292 11.9692 9.26413C12.3478 9.17258 12.7448 9.34973 12.8564 9.6601C12.9681 9.97046 12.7521 10.2964 12.3737 10.3879C11.1232 10.691 9.95661 11.2147 8.96219 11.9139L9.44406 12.3092C9.7228 12.5381 9.7228 12.9091 9.44406 13.138C9.30455 13.2524 9.12179 13.3096 8.93876 13.3096C8.756 13.3096 8.57324 13.2524 8.43373 13.138L7.95075 12.7418C6.65834 13.9745 5.89077 15.492 5.74121 17.1093H6.42815C6.82269 17.1093 7.14244 17.3718 7.14244 17.6952C7.14244 18.0189 6.82269 18.2812 6.42815 18.2812H5.74121C5.89077 19.8987 6.65834 21.4159 7.95075 22.6487L8.43373 22.2525C8.71275 22.0238 9.16504 22.0238 9.44406 22.2525C9.72308 22.4814 9.72308 22.8524 9.44406 23.0813L8.96108 23.4775C10.4639 24.5376 12.3138 25.1673 14.2853 25.2902V24.7265C14.2853 24.4028 14.6051 24.1405 14.9996 24.1405C15.3941 24.1405 15.7139 24.4028 15.7139 24.7265V25.29C17.6854 25.1673 19.5353 24.5376 21.0381 23.4775L20.5551 23.0813C20.2761 22.8524 20.2761 22.4814 20.5551 22.2525C20.8341 22.0238 21.2864 22.0238 21.5654 22.2525L22.0484 22.6487C23.3408 21.4159 24.1084 19.8984 24.258 18.2812H23.571C23.1765 18.2812 22.8567 18.0189 22.8567 17.6952C22.8567 17.3716 23.1765 17.1093 23.571 17.1093H24.258C24.1084 15.492 23.3408 13.9745 22.0484 12.7418L21.5654 13.138C21.4259 13.2524 21.2432 13.3096 21.0604 13.3096C20.8774 13.3096 20.6946 13.2524 20.5551 13.138C20.2764 12.9091 20.2764 12.5381 20.5551 12.3092L21.037 11.9139C20.0426 11.2144 18.876 10.691 17.6254 10.3879C17.2471 10.2964 17.0311 9.97046 17.1427 9.6601C17.2543 9.34973 17.6511 9.17281 18.03 9.26413C19.7175 9.67269 21.2722 10.4285 22.5308 11.4497C22.5456 11.46 22.5601 11.4706 22.5738 11.4818C22.5861 11.4918 22.597 11.5024 22.6081 11.5129C24.6112 13.1714 25.7139 15.365 25.7139 17.6952C25.7139 20.0252 24.6112 22.2186 22.6087 23.8769C22.5975 23.8876 22.5864 23.8984 22.5738 23.9085C22.5615 23.9187 22.5487 23.9277 22.5359 23.9368C20.5141 25.5797 17.8403 26.4843 14.9996 26.4843C12.1592 26.4843 9.48535 25.58 7.46387 23.9373C7.45075 23.9279 7.43764 23.9187 7.42536 23.9085C7.41309 23.8986 7.4022 23.8879 7.39104 23.8776C5.38798 22.2191 4.2853 20.0255 4.2853 17.6952C4.2853 15.3652 5.38798 13.1718 7.39049 11.5136Z"/>
<path d="M14.9996 10.0781C14.6053 10.0781 14.2853 9.8156 14.2853 9.49219C14.2853 9.16878 14.6053 8.90625 14.9996 8.90625C15.3938 8.90625 15.7139 9.16878 15.7139 9.49219C15.7139 9.8156 15.3938 10.0781 14.9996 10.0781Z"/>
</symbol><symbol id="tag" viewBox="0 0 30 30">
<path d="M9.48652 7.35921C9.37754 7.2502 9.22637 7.1875 9.07227 7.1875C8.91816 7.1875 8.76699 7.2502 8.65801 7.35921C8.54908 7.46821 8.48633 7.6194 8.48633 7.77353C8.48633 7.92765 8.54902 8.07885 8.65801 8.18785C8.76699 8.29691 8.91816 8.35955 9.07227 8.35955C9.22637 8.35955 9.37754 8.29685 9.48652 8.18785C9.59545 8.07885 9.6582 7.92765 9.6582 7.77353C9.6582 7.6194 9.59551 7.46821 9.48652 7.35921Z"/>
<path d="M29.8286 2.45028L29.1041 1.72484L29.8284 1.00045C30.0572 0.771606 30.0572 0.400534 29.8284 0.171632C29.5995 -0.0572108 29.2286 -0.0572108 28.9997 0.171632L28.2758 0.89555L27.562 0.180716C27.4521 0.0707773 27.3032 0.00889294 27.1478 0.00883434L17.2305 0.0033257C17.23 0.0033257 17.2294 0.0033257 17.2289 0.0033257C16.4458 0.0033257 15.7096 0.308294 15.1558 0.862147L10.207 5.81172C9.97816 6.04056 9.97816 6.41164 10.207 6.64054C10.4358 6.86938 10.8067 6.86938 11.0357 6.64054L15.9845 1.69096C16.317 1.35845 16.7588 1.17544 17.2289 1.17544C17.2293 1.17544 17.2296 1.17544 17.2299 1.17544L26.9044 1.18083L27.4473 1.72443L25.2732 3.89882C24.3513 3.34654 23.1359 3.46697 22.3423 4.26057C21.889 4.71404 21.6393 5.31688 21.6393 5.95811C21.6393 6.59934 21.889 7.20219 22.3423 7.65565C22.8103 8.12365 23.425 8.35765 24.0397 8.35765C24.6543 8.35765 25.269 8.12365 25.737 7.65565C26.5293 6.86317 26.6505 5.64998 26.1012 4.72839L28.2755 2.55371L28.8281 3.10698L28.8227 12.7698C28.8224 13.2395 28.6393 13.6812 28.3072 14.0134L14.0089 28.3137C13.6765 28.6462 13.2346 28.8292 12.7645 28.8292C12.2945 28.8292 11.8525 28.6462 11.5201 28.3137L1.68738 18.4794C1.35492 18.147 1.17188 17.7049 1.17188 17.2348C1.17188 16.7647 1.35492 16.3227 1.68738 15.9902L8.00344 9.67322C8.23225 9.44438 8.23225 9.07331 8.00344 8.84441C7.77457 8.61556 7.40367 8.61556 7.17475 8.84441L0.858691 15.1614C0.30498 15.7152 0 16.4516 0 17.2348C0 18.0181 0.30498 18.7545 0.858691 19.3083L10.6914 29.1425C11.263 29.7141 12.0137 30 12.7645 30C13.5154 30 14.2661 29.7141 14.8376 29.1425L29.1358 14.8421C29.6891 14.2888 29.994 13.5529 29.9945 12.7703L30 2.86471C30.0001 2.7093 29.9384 2.56022 29.8286 2.45028ZM24.9083 6.82678C24.6762 7.05884 24.3677 7.18666 24.0397 7.18666C23.7115 7.18666 23.403 7.05884 23.171 6.82678C22.692 6.34776 22.692 5.56829 23.171 5.08927C23.4105 4.8497 23.725 4.72998 24.0397 4.72998C24.1581 4.72998 24.2766 4.74703 24.3911 4.78102L23.7148 5.45741C23.486 5.68625 23.486 6.05732 23.7148 6.28623C23.8292 6.40068 23.9791 6.45787 24.1291 6.45787C24.279 6.45787 24.429 6.40068 24.5434 6.28623L25.2178 5.61171C25.3396 6.0289 25.2366 6.49843 24.9083 6.82678Z"/>
<path d="M25.0324 11.7988L18.2039 4.96926C17.2994 4.06455 15.8274 4.06467 14.923 4.96926L4.11707 15.7769C3.67885 16.2151 3.4375 16.7978 3.4375 17.4176C3.4375 18.0373 3.67879 18.6201 4.11701 19.0583L10.9455 25.8877C11.3837 26.326 11.9663 26.5674 12.586 26.5674C13.2057 26.5674 13.7883 26.3261 14.2264 25.8878L25.0324 15.0802C25.4706 14.6419 25.7119 14.0593 25.7119 13.4395C25.7119 12.8197 25.4706 12.237 25.0324 11.7988ZM24.2037 14.2514L13.3978 25.0591C13.181 25.2759 12.8927 25.3954 12.586 25.3954C12.2794 25.3954 11.9911 25.2759 11.7743 25.059L4.9457 18.2296C4.72885 18.0127 4.60943 17.7243 4.60943 17.4176C4.60938 17.1109 4.72885 16.8225 4.9457 16.6057L15.7517 5.79807C15.9755 5.57421 16.2695 5.46228 16.5635 5.46228C16.8575 5.46228 17.1515 5.57427 17.3753 5.79807L24.2037 12.6276C24.4206 12.8444 24.54 13.1328 24.54 13.4395C24.54 13.7462 24.4206 14.0346 24.2037 14.2514Z"/>
<path d="M19.1097 11.7231C19.3385 11.4943 19.3385 11.1232 19.1097 10.8943C18.8808 10.6654 18.5099 10.6654 18.281 10.8943L17.9436 11.2317C17.0428 10.6752 15.8868 10.7499 15.1561 11.4806C14.7301 11.9067 14.5121 12.4853 14.5423 13.1099C14.5716 13.713 14.8313 14.2888 15.2735 14.7311C15.2735 14.7311 15.2736 14.7311 15.2736 14.7312C15.7448 15.2028 15.7975 15.9172 15.3908 16.3239C14.984 16.7307 14.2695 16.678 13.7981 16.2066C13.3266 15.735 13.274 15.0204 13.6807 14.6136C13.9095 14.3848 13.9095 14.0137 13.6807 13.7848C13.4518 13.556 13.0809 13.556 12.852 13.7848C12.1214 14.5156 12.0467 15.6717 12.6032 16.5728L12.2029 16.9731C11.974 17.2019 11.974 17.573 12.2029 17.8019C12.3176 17.9165 12.4675 17.9737 12.6175 17.9737C12.7675 17.9737 12.9173 17.9164 13.0318 17.802L13.4323 17.4014C13.826 17.6445 14.2681 17.7677 14.7024 17.7677C15.2619 17.7677 15.8082 17.5641 16.2196 17.1528C17.083 16.2891 17.0305 14.8314 16.1027 13.9028C16.1025 13.9027 16.1024 13.9025 16.1022 13.9023C15.8663 13.6664 15.728 13.3649 15.7129 13.0531C15.6989 12.7629 15.7954 12.4988 15.9848 12.3094C16.3915 11.9027 17.1059 11.9553 17.5774 12.4266C17.5774 12.4267 17.5774 12.4267 17.5775 12.4268C17.5775 12.4269 17.5776 12.4269 17.5776 12.4269C18.0489 12.8984 18.1015 13.6129 17.6948 14.0197C17.466 14.2485 17.466 14.6196 17.6948 14.8485C17.8092 14.9629 17.9592 15.0201 18.1091 15.0201C18.259 15.0201 18.409 14.9629 18.5234 14.8485C19.2541 14.1177 19.3288 12.9616 18.7723 12.0605L19.1097 11.7231Z"/>
<path d="M13.1797 21.4383L10.1702 18.4284C9.94141 18.1997 9.57051 18.1996 9.34153 18.4284C9.11272 18.6572 9.11272 19.0283 9.34153 19.2572L12.351 22.2671C12.4655 22.3815 12.6154 22.4388 12.7653 22.4388C12.9153 22.4388 13.0652 22.3815 13.1797 22.2671C13.4085 22.0383 13.4085 21.6672 13.1797 21.4383Z"/>
<path d="M8.55873 16.8221C8.4498 16.7132 8.29916 16.6504 8.14453 16.6504C7.99043 16.6504 7.83984 16.7131 7.73027 16.8221C7.62129 16.9311 7.55859 17.0823 7.55859 17.237C7.55859 17.3911 7.62123 17.5423 7.73027 17.6513C7.83926 17.7603 7.99043 17.823 8.14453 17.823C8.29922 17.823 8.4498 17.7603 8.55873 17.6513C8.6683 17.5417 8.731 17.3911 8.731 17.237C8.731 17.0823 8.6683 16.9317 8.55873 16.8221Z"/>
</symbol><symbol id="vk" viewBox="0 0 30 30"><g fill="none">
<path d="M21.617 17.4544C20.3818 16.2726 20.2935 16.2726 21.3523 14.9091C22.6758 13.1819 24.4405 11.0002 22.8523 11.0002H19.9406C19.4112 11.0002 19.323 11.3638 19.1465 11.8184C18.4406 13.5455 17.0289 15.8181 16.4995 15.4545C15.9701 15.0909 16.2348 13.7273 16.2348 11.5457C16.323 11.2729 16.2348 11.0002 16.0583 10.8184C15.8819 10.6366 15.6172 10.4548 15.3525 10.4548C14.9113 10.3639 14.4702 10.273 14.029 10.273C12.3526 10.273 11.2056 11.0002 11.8232 11.0911C12.9702 11.2729 12.882 13.8182 12.6173 14.9091C12.1761 16.8181 10.4115 13.4546 9.61736 11.7275C9.52913 11.2729 9.1762 11.0002 8.73504 11.0002H6.44099C6.08806 11.0002 5.82336 11.0911 5.82336 11.3638C5.82336 11.8184 8.02917 16.2726 10.0585 18.5452C12.0879 20.7269 14.1172 20.5451 15.529 20.5451C15.7054 20.5451 15.8819 20.4542 15.9701 20.3633C16.0583 20.2724 16.1466 20.0906 16.1466 19.9088C16.1466 18.4543 16.676 17.7271 17.6465 18.727C18.7053 19.8179 18.97 20.5451 20.2935 20.5451H22.6758C23.2934 20.5451 23.4699 20.3633 23.4699 20.0906C23.5581 19.4543 22.4993 18.2725 21.617 17.4544ZM15.3525 0.000910576C23.5581 0.182718 30.0873 7.00048 29.9991 15.2727C29.9109 23.5449 23.117 30.09 14.9113 29.9991C6.61745 29.9082 0 23.2722 0 15C0.0882327 6.63687 6.97038 -0.0899929 15.3525 0.000910576Z" fill="#F8FDFF"/>
</g></symbol></svg>